<?xml version="1.0" standalone="no"?>
<!DOCTYPE svg PUBLIC "-//W3C//DTD SVG 20010904//EN"
 "http://www.w3.org/TR/2001/REC-SVG-20010904/DTD/svg10.dtd">
<svg version="1.0" xmlns="http://www.w3.org/2000/svg"
 width="377.000000pt" height="141.000000pt" viewBox="0 0 377.000000 141.000000"
 preserveAspectRatio="xMidYMid meet">

<g transform="translate(0.000000,141.000000) scale(0.100000,-0.100000)"
fill="#000000" stroke="none">
<path d="M440 1051 l-25 -7 -3 -337 -2 -337 335 0 335 0 -2 343 -3 342 -305 2
c-168 0 -316 -2 -330 -6z m368 -156 c154 -65 165 -283 18 -355 -126 -61 -267
12 -283 147 -17 151 127 265 265 208z"/>
<path d="M649 869 c-20 -12 -48 -40 -63 -63 -24 -36 -27 -49 -24 -102 6 -104
70 -165 173 -165 75 0 130 33 164 98 18 35 13 119 -9 163 -42 81 -160 115
-241 69z m131 -60 c5 -44 5 -44 50 -49 l45 -5 0 -40 c0 -35 -3 -40 -25 -43
-65 -7 -69 -10 -72 -55 -3 -42 -3 -42 -43 -42 l-40 0 -5 45 c-5 45 -5 45 -47
48 l-43 3 0 44 0 44 43 3 c41 3 42 4 45 43 4 46 9 50 54 49 31 -1 33 -3 38
-45z"/>
<path d="M1160 715 l0 -345 1160 0 1160 0 0 345 0 345 -1160 0 -1160 0 0 -345z
m1667 124 c33 -21 73 -90 73 -127 0 -89 -100 -170 -187 -152 -82 18 -126 77
-120 163 3 49 8 62 36 91 55 57 130 66 198 25z m-1409 -31 l3 -48 44 0 44 0 3
48 c3 39 6 47 23 47 19 0 20 -7 20 -145 0 -138 -1 -145 -20 -145 -18 0 -20 8
-23 83 l-3 82 -44 0 -44 0 -3 -82 c-3 -75 -5 -83 -23 -83 -19 0 -20 8 -23 148
l-3 148 23 -3 c20 -3 23 -10 26 -50z m362 32 c0 -17 -7 -20 -50 -20 -49 0 -50
-1 -50 -30 0 -28 2 -30 40 -30 29 0 40 -4 40 -15 0 -11 -11 -15 -40 -15 l-40
0 0 -65 0 -65 51 0 c43 0 50 -3 47 -17 -3 -15 -15 -18 -73 -18 l-70 0 -3 148
-3 147 76 0 c68 0 75 -2 75 -20z m213 -122 c31 -79 57 -147 57 -151 0 -5 -10
-7 -22 -5 -15 2 -26 16 -37 46 -15 41 -16 42 -63 42 -46 0 -47 -1 -67 -45 -18
-41 -38 -55 -54 -39 -3 3 7 36 23 72 15 37 42 102 60 145 17 42 35 77 39 77 3
0 32 -64 64 -142z m147 12 l0 -130 51 0 c43 0 50 -3 47 -17 -3 -15 -15 -18
-73 -18 l-70 0 -3 134 c-1 74 0 141 2 148 3 7 15 13 26 13 19 0 20 -6 20 -130z
m255 30 l90 -99 3 100 c2 91 4 99 22 99 19 0 20 -7 20 -152 l-1 -153 -99 104
-99 104 -3 -99 c-3 -85 -5 -99 -20 -102 -17 -3 -18 9 -18 147 0 83 3 151 8
150 4 0 48 -45 97 -99z m590 4 c43 -110 36 -112 85 29 13 37 27 67 30 67 4 0
23 -44 43 -97 39 -111 29 -115 83 30 20 52 30 67 46 67 11 0 18 -6 16 -13 -10
-42 -104 -287 -109 -287 -4 0 -22 43 -40 95 -19 52 -36 95 -39 95 -3 0 -21
-43 -39 -95 -18 -52 -36 -95 -40 -95 -6 0 -111 277 -111 293 0 4 9 7 19 7 15
0 27 -22 56 -96z"/>
<path d="M2705 818 c-63 -35 -88 -92 -65 -149 36 -87 157 -95 199 -12 28 55 3
130 -53 157 -40 19 -54 19 -81 4z"/>
<path d="M1912 735 c-13 -45 -12 -48 22 -43 l25 3 -17 39 -18 39 -12 -38z"/>
</g>
</svg>
